<svg width="152" height="152" viewBox="0 0 152 152" fill="none" xmlns="http://www.w3.org/2000/svg">
<g clip-path="url(#clip0)">
<path d="M105.236 33.5534C98.893 35.8534 91.9542 40.4736 86.1985 46.2293L48.6389 83.7889C47.1278 83.58 45.6757 83.6091 44.3414 83.888L71.4775 56.7519C48.2016 72.0892 33.045 59.4975 16.8207 75.7219L16.8203 75.7223L33.6141 92.516L31.5105 94.6197L14.7167 77.8259C11.2312 81.3114 12.1652 87.8963 16.8026 92.5337L25.1995 100.931C22.1496 103.981 22.3085 106.454 24.1411 108.287L29.3891 113.535C31.2237 115.369 33.6975 115.524 36.7453 112.476L38.8445 114.576C35.7946 117.625 35.9534 120.099 37.786 121.932L43.0341 127.18C44.8687 129.014 47.3424 129.169 50.3902 126.121L58.7871 134.518C63.4245 139.156 70.0094 140.09 73.4949 136.604L56.7011 119.81L58.8048 117.707L75.5986 134.501L75.599 134.5C91.8233 118.276 79.2316 103.119 94.5689 79.8434L67.4327 106.98C67.7116 105.645 67.7407 104.193 67.5318 102.682L105.092 65.1223C110.847 59.3666 115.467 52.4278 117.767 46.0847C119.844 40.3576 119.831 35.6857 117.733 33.5875C115.635 31.4894 110.963 31.4765 105.236 33.5534ZM102.997 58.8202C102.718 59.0992 102.34 59.2561 101.946 59.2565C101.551 59.2569 101.174 59.1008 100.895 58.8224L92.4984 50.4255C92.22 50.1471 92.0639 49.7694 92.0643 49.3753C92.0647 48.9812 92.2217 48.603 92.5006 48.3241C96.6959 44.1288 107.196 54.6205 102.997 58.8202Z" fill="#FF8000"/>
</g>
<defs>
<clipPath id="clip0">
<rect width="119" height="95" fill="white" transform="translate(0 84.1457) rotate(-45)"/>
</clipPath>
</defs>
</svg>
