<svg width="51" height="47" viewBox="0 0 51 47" fill="none" xmlns="http://www.w3.org/2000/svg">
<g filter="url(#filter0_d)">
<path d="M36.125 21.5416H19.9963L27.0088 15.0987C27.4089 14.7299 27.6337 14.2298 27.6337 13.7083C27.6337 13.1868 27.4089 12.6866 27.0088 12.3179C26.6086 11.9491 26.0659 11.7419 25.5 11.7419C24.9341 11.7419 24.3914 11.9491 23.9913 12.3179L13.3663 22.1095C13.1728 22.2958 13.0212 22.5154 12.92 22.7558C12.7075 23.2326 12.7075 23.7673 12.92 24.2441C13.0212 24.4845 13.1728 24.7041 13.3663 24.8904L23.9913 34.682C24.1888 34.8656 24.4238 35.0113 24.6828 35.1107C24.9417 35.2101 25.2195 35.2613 25.5 35.2613C25.7805 35.2613 26.0583 35.2101 26.3173 35.1107C26.5762 35.0113 26.8112 34.8656 27.0088 34.682C27.2079 34.5 27.366 34.2834 27.4739 34.0448C27.5818 33.8061 27.6373 33.5501 27.6373 33.2916C27.6373 33.0331 27.5818 32.7771 27.4739 32.5385C27.366 32.2999 27.2079 32.0833 27.0088 31.9012L19.9963 25.4583H36.125C36.6886 25.4583 37.2291 25.252 37.6276 24.8847C38.0261 24.5174 38.25 24.0193 38.25 23.5C38.25 22.9806 38.0261 22.4825 37.6276 22.1152C37.2291 21.7479 36.6886 21.5416 36.125 21.5416Z" fill="white"/>
</g>
<defs>
<filter id="filter0_d" x="-4" y="0" width="59" height="55" filterUnits="userSpaceOnUse" color-interpolation-filters="sRGB">
<feFlood flood-opacity="0" result="BackgroundImageFix"/>
<feColorMatrix in="SourceAlpha" type="matrix" values="0 0 0 0 0 0 0 0 0 0 0 0 0 0 0 0 0 0 127 0"/>
<feOffset dy="4"/>
<feGaussianBlur stdDeviation="2"/>
<feColorMatrix type="matrix" values="0 0 0 0 0 0 0 0 0 0 0 0 0 0 0 0 0 0 0.25 0"/>
<feBlend mode="normal" in2="BackgroundImageFix" result="effect1_dropShadow"/>
<feBlend mode="normal" in="SourceGraphic" in2="effect1_dropShadow" result="shape"/>
</filter>
</defs>
</svg>
