<svg width="138" height="138" viewBox="0 0 138 138" fill="none" xmlns="http://www.w3.org/2000/svg">
<path fill-rule="evenodd" clip-rule="evenodd" d="M97.9284 48.6966C98.33 49.0972 98.6486 49.5731 98.866 50.0971C99.0834 50.621 99.1954 51.1827 99.1954 51.7499C99.1954 52.3171 99.0834 52.8788 98.866 53.4027C98.6486 53.9267 98.33 54.4026 97.9284 54.8031L72.0534 80.6781C71.6528 81.0798 71.1769 81.3984 70.653 81.6158C70.1291 81.8332 69.5674 81.9451 69.0001 81.9451C68.4329 81.9451 67.8712 81.8332 67.3473 81.6158C66.8234 81.3984 66.3475 81.0798 65.9469 80.6781L53.0094 67.7406C52.6084 67.3397 52.2904 66.8637 52.0734 66.3398C51.8564 65.8159 51.7447 65.2544 51.7447 64.6874C51.7447 64.1204 51.8564 63.5589 52.0734 63.035C52.2904 62.5111 52.6084 62.0351 53.0094 61.6341C53.4103 61.2332 53.8864 60.9151 54.4102 60.6981C54.9341 60.4811 55.4956 60.3694 56.0626 60.3694C56.6297 60.3694 57.1912 60.4811 57.715 60.6981C58.2389 60.9151 58.7149 61.2332 59.1159 61.6341L69.0001 71.527L91.8219 48.6966C92.2225 48.295 92.6984 47.9764 93.2223 47.759C93.7462 47.5416 94.3079 47.4297 94.8751 47.4297C95.4424 47.4297 96.0041 47.5416 96.528 47.759C97.0519 47.9764 97.5278 48.295 97.9284 48.6966Z" fill="black"/>
<path fill-rule="evenodd" clip-rule="evenodd" d="M0 12.9375C0 11.7938 0.454351 10.6969 1.2631 9.8881C2.07185 9.07935 3.16875 8.625 4.3125 8.625H17.25C18.212 8.62527 19.1462 8.94715 19.9042 9.53946C20.6622 10.1318 21.2003 10.9605 21.4331 11.8939L24.9263 25.875H125.062C125.696 25.8756 126.321 26.0156 126.894 26.2851C127.467 26.5546 127.974 26.947 128.378 27.4344C128.782 27.9218 129.074 28.4923 129.233 29.1052C129.392 29.7182 129.414 30.3586 129.297 30.981L116.36 99.981C116.175 100.969 115.65 101.862 114.877 102.504C114.104 103.147 113.13 103.499 112.125 103.5H34.5C33.4946 103.499 32.5211 103.147 31.7479 102.504C30.9746 101.862 30.4501 100.969 30.2651 99.981L17.3363 31.1104L13.8863 17.25H4.3125C3.16875 17.25 2.07185 16.7956 1.2631 15.9869C0.454351 15.1781 0 14.0812 0 12.9375ZM26.7547 34.5L38.0794 94.875H108.546L119.87 34.5H26.7547ZM43.125 103.5C38.55 103.5 34.1624 105.317 30.9274 108.552C27.6924 111.787 25.875 116.175 25.875 120.75C25.875 125.325 27.6924 129.713 30.9274 132.948C34.1624 136.183 38.55 138 43.125 138C47.7 138 52.0876 136.183 55.3226 132.948C58.5576 129.713 60.375 125.325 60.375 120.75C60.375 116.175 58.5576 111.787 55.3226 108.552C52.0876 105.317 47.7 103.5 43.125 103.5ZM103.5 103.5C98.925 103.5 94.5374 105.317 91.3024 108.552C88.0674 111.787 86.25 116.175 86.25 120.75C86.25 125.325 88.0674 129.713 91.3024 132.948C94.5374 136.183 98.925 138 103.5 138C108.075 138 112.463 136.183 115.698 132.948C118.933 129.713 120.75 125.325 120.75 120.75C120.75 116.175 118.933 111.787 115.698 108.552C112.463 105.317 108.075 103.5 103.5 103.5ZM43.125 112.125C40.8375 112.125 38.6437 113.034 37.0262 114.651C35.4087 116.269 34.5 118.463 34.5 120.75C34.5 123.037 35.4087 125.231 37.0262 126.849C38.6437 128.466 40.8375 129.375 43.125 129.375C45.4125 129.375 47.6063 128.466 49.2238 126.849C50.8413 125.231 51.75 123.037 51.75 120.75C51.75 118.463 50.8413 116.269 49.2238 114.651C47.6063 113.034 45.4125 112.125 43.125 112.125ZM103.5 112.125C101.213 112.125 99.0187 113.034 97.4012 114.651C95.7837 116.269 94.875 118.463 94.875 120.75C94.875 123.037 95.7837 125.231 97.4012 126.849C99.0187 128.466 101.213 129.375 103.5 129.375C105.787 129.375 107.981 128.466 109.599 126.849C111.216 125.231 112.125 123.037 112.125 120.75C112.125 118.463 111.216 116.269 109.599 114.651C107.981 113.034 105.787 112.125 103.5 112.125Z" fill="black"/>
</svg>
