<svg width="38" height="38" viewBox="0 0 38 38" fill="none" xmlns="http://www.w3.org/2000/svg">
<path fill-rule="evenodd" clip-rule="evenodd" d="M9.6721 9.6721C10.0363 9.30788 10.524 9.0969 11.0277 9.08557C11.5315 9.07425 12.0102 9.26352 12.3584 9.61174L18.9232 16.1765L25.7898 9.30991C26.154 8.94568 26.6417 8.7347 27.1454 8.72338C27.6492 8.71206 28.1279 8.90133 28.4761 9.24954C28.8243 9.59776 29.0136 10.0764 29.0022 10.5802C28.9909 11.084 28.7799 11.5716 28.4157 11.9358L21.5491 18.8024L28.1139 25.3672C28.4621 25.7155 28.6514 26.1941 28.64 26.6979C28.6287 27.2016 28.4177 27.6893 28.0535 28.0535C27.6893 28.4177 27.2016 28.6287 26.6979 28.64C26.1941 28.6514 25.7155 28.4621 25.3672 28.1139L18.8024 21.5491L11.9358 28.4157C11.5716 28.7799 11.084 28.9909 10.5802 29.0022C10.0764 29.0136 9.59776 28.8243 9.24954 28.4761C8.90132 28.1279 8.71206 27.6492 8.72338 27.1454C8.7347 26.6417 8.94568 26.154 9.30991 25.7898L16.1765 18.9232L9.61174 12.3584C9.26352 12.0102 9.07425 11.5315 9.08557 11.0277C9.09689 10.524 9.30788 10.0363 9.6721 9.6721Z" fill="#094B4B" fill-opacity="0.65"/>
</svg>
