<svg width="55" height="50" viewBox="0 0 55 50" fill="none" xmlns="http://www.w3.org/2000/svg">
<g filter="url(#filter0_d)">
<path d="M18.7913 11C15.6061 11 13 13.1206 13 15.7124V35.7401C13 38.3319 15.6061 40.4525 18.7913 40.4525H30.6461V40.231L31.37 38.0963H18.7913C17.1987 38.0963 15.8957 37.036 15.8957 35.7401V15.7124C15.8957 14.4165 17.1987 13.3562 18.7913 13.3562H27.9314C28.9449 13.5918 28.9261 14.6521 28.9261 15.7124V19.2467C28.9261 19.9536 29.5052 20.4248 30.3739 20.4248H34.7174C36.1652 20.4248 37.613 20.4248 37.613 21.6029V31.0277L40.5087 28.6715V20.4248C40.5087 19.1289 39.0782 17.9367 36.6169 15.9327C36.1826 15.6971 35.8756 15.359 35.4413 15.1234C35.1517 14.7699 34.7348 14.519 34.4452 14.1656C31.9853 12.164 30.5187 11 28.9261 11H18.7913ZM46.798 27.6042C46.3999 27.6042 46.0017 27.7361 45.7122 27.9717L43.9922 29.3713L48.3356 32.9056L50.0557 31.506C50.6348 31.0348 50.6348 30.3279 50.0557 29.7389L47.8839 27.9717C47.5954 27.7378 47.2053 27.6058 46.798 27.6042ZM42.4082 30.5494L35.5774 36.4399C35.4326 36.4399 35.3052 36.5789 35.3052 36.6967L33.7213 40.9308C33.5765 41.0486 33.7126 41.2913 33.8574 41.4103C34.0022 41.5281 34.1194 41.5199 34.2642 41.5199H34.4466L39.6487 40.2322C39.7935 40.2322 39.7761 40.2028 39.9209 40.0849L47.0239 34.3417L42.4082 30.5482V30.5494ZM36.1652 37.029L38.337 37.3965L38.7901 39.2744L35.8945 39.8635L35.3052 39.3852L36.1652 37.029Z" fill="white"/>
</g>
<defs>
<filter id="filter0_d" x="-4" y="0" width="59" height="55" filterUnits="userSpaceOnUse" color-interpolation-filters="sRGB">
<feFlood flood-opacity="0" result="BackgroundImageFix"/>
<feColorMatrix in="SourceAlpha" type="matrix" values="0 0 0 0 0 0 0 0 0 0 0 0 0 0 0 0 0 0 127 0"/>
<feOffset dy="4"/>
<feGaussianBlur stdDeviation="2"/>
<feColorMatrix type="matrix" values="0 0 0 0 0 0 0 0 0 0 0 0 0 0 0 0 0 0 0.25 0"/>
<feBlend mode="normal" in2="BackgroundImageFix" result="effect1_dropShadow"/>
<feBlend mode="normal" in="SourceGraphic" in2="effect1_dropShadow" result="shape"/>
</filter>
</defs>
</svg>
