<svg width="138" height="138" viewBox="0 0 138 138" fill="none" xmlns="http://www.w3.org/2000/svg">
<path d="M69 10.7812C57.4854 10.7813 46.2294 14.1957 36.6554 20.5929C27.0814 26.99 19.6194 36.0826 15.2129 46.7206C10.8065 57.3587 9.65355 69.0646 11.8999 80.3579C14.1463 91.6512 19.6911 102.025 27.8332 110.167C35.9752 118.309 46.3488 123.854 57.6421 126.1C68.9354 128.346 80.6413 127.194 91.2794 122.787C101.917 118.381 111.01 110.919 117.407 101.345C123.804 91.7706 127.219 80.5146 127.219 69C127.201 53.5648 121.062 38.7667 110.148 27.8524C99.2333 16.938 84.4352 10.7987 69 10.7812ZM69 114.281C60.0442 114.281 51.2896 111.626 43.8431 106.65C36.3966 101.674 30.5928 94.6024 27.1656 86.3284C23.7384 78.0543 22.8417 68.9498 24.5888 60.1661C26.336 51.3824 30.6486 43.314 36.9813 36.9813C43.314 30.6486 51.3824 26.336 60.1661 24.5888C68.9498 22.8416 78.0543 23.7383 86.3284 27.1656C94.6025 30.5928 101.674 36.3966 106.65 43.8431C111.626 51.2895 114.281 60.0442 114.281 69C114.268 81.0052 109.493 92.5148 101.004 101.004C92.5148 109.493 81.0052 114.268 69 114.281ZM90.824 56.3239L78.1484 69L90.824 81.676C92.0208 82.8925 92.6884 84.5326 92.6815 86.2391C92.6745 87.9456 91.9935 89.5802 90.7869 90.7868C89.5802 91.9935 87.9456 92.6745 86.2391 92.6814C84.5326 92.6884 82.8925 92.0207 81.6761 90.8239L69 78.1484L56.324 90.8239C55.1075 92.0207 53.4674 92.6884 51.7609 92.6814C50.0545 92.6745 48.4198 91.9935 47.2132 90.7868C46.0065 89.5802 45.3255 87.9456 45.3186 86.2391C45.3116 84.5326 45.9793 82.8925 47.1761 81.676L59.8516 69L47.1761 56.3239C45.9793 55.1075 45.3116 53.4674 45.3186 51.7609C45.3255 50.0544 46.0065 48.4198 47.2132 47.2131C48.4198 46.0065 50.0545 45.3255 51.7609 45.3186C53.4674 45.3116 55.1075 45.9792 56.324 47.1761L69 59.8516L81.6761 47.1761C82.8925 45.9792 84.5326 45.3116 86.2391 45.3186C87.9456 45.3255 89.5802 46.0065 90.7869 47.2131C91.9935 48.4198 92.6745 50.0544 92.6815 51.7609C92.6884 53.4674 92.0208 55.1075 90.824 56.3239Z" fill="black"/>
</svg>
