<svg width="43" height="45" viewBox="0 0 43 45" fill="none" xmlns="http://www.w3.org/2000/svg">
<g filter="url(#filter0_d)">
<path d="M22.3959 36.4167C27.8425 36.4167 32.25 32.5217 32.25 27.7083V9.5H29.5625V27.7083C29.5625 31.2075 26.3554 34.0417 22.3959 34.0417C18.4363 34.0417 15.2292 31.2075 15.2292 27.7083V7.91667C15.2292 6.86685 15.7011 5.86004 16.5411 5.1177C17.3811 4.37537 18.5204 3.95834 19.7084 3.95834C20.8963 3.95834 22.0356 4.37537 22.8756 5.1177C23.7156 5.86004 24.1875 6.86685 24.1875 7.91667V24.5417C24.1875 25.4125 23.3813 26.125 22.3959 26.125C21.4104 26.125 20.6042 25.4125 20.6042 24.5417V9.5H17.9167V24.5417C17.9167 25.5915 18.3886 26.5983 19.2286 27.3406C20.0686 28.083 21.2079 28.5 22.3959 28.5C23.5838 28.5 24.7231 28.083 25.5631 27.3406C26.4031 26.5983 26.875 25.5915 26.875 24.5417V7.91667C26.875 4.4175 23.6679 1.58334 19.7084 1.58334C15.7488 1.58334 12.5417 4.4175 12.5417 7.91667V27.7083C12.5417 32.5217 16.9492 36.4167 22.3959 36.4167Z" fill="white"/>
</g>
<defs>
<filter id="filter0_d" x="-4" y="0" width="51" height="46" filterUnits="userSpaceOnUse" color-interpolation-filters="sRGB">
<feFlood flood-opacity="0" result="BackgroundImageFix"/>
<feColorMatrix in="SourceAlpha" type="matrix" values="0 0 0 0 0 0 0 0 0 0 0 0 0 0 0 0 0 0 127 0"/>
<feOffset dy="4"/>
<feGaussianBlur stdDeviation="2"/>
<feColorMatrix type="matrix" values="0 0 0 0 0 0 0 0 0 0 0 0 0 0 0 0 0 0 0.25 0"/>
<feBlend mode="normal" in2="BackgroundImageFix" result="effect1_dropShadow"/>
<feBlend mode="normal" in="SourceGraphic" in2="effect1_dropShadow" result="shape"/>
</filter>
</defs>
</svg>
