<svg width="109" height="112" viewBox="0 0 109 112" fill="none" xmlns="http://www.w3.org/2000/svg">
<g clip-path="url(#clip0)">
<path fill-rule="evenodd" clip-rule="evenodd" d="M0 108.5C0 107.572 0.358872 106.682 0.997668 106.025C1.63646 105.369 2.50286 105 3.40625 105H105.594C106.497 105 107.364 105.369 108.002 106.025C108.641 106.682 109 107.572 109 108.5C109 109.428 108.641 110.318 108.002 110.975C107.364 111.631 106.497 112 105.594 112H3.40625C2.50286 112 1.63646 111.631 0.997668 110.975C0.358872 110.318 0 109.428 0 108.5ZM21.255 8.225C21.5748 7.84082 21.9718 7.53239 22.4187 7.32092C22.8656 7.10945 23.3517 6.99997 23.8438 7H85.1562C85.6483 6.99997 86.1344 7.10945 86.5813 7.32092C87.0282 7.53239 87.4252 7.84082 87.745 8.225L106.541 30.758C108.128 32.6608 109 35.0841 109 37.59V38.5H102.188V37.59C102.188 36.7558 101.898 35.949 101.37 35.315L83.5894 14H25.4106L7.63 35.315C7.10235 35.949 6.81244 36.7558 6.8125 37.59V38.5H0V37.59C8.57903e-05 35.0841 0.872386 32.6608 2.45931 30.758L21.2618 8.218L21.255 8.225Z" fill="black"/>
<path d="M16.1797 48.125C21.3572 48.125 25.5469 43.813 25.5469 38.5H32.3594C32.3594 41.0527 33.3463 43.5009 35.103 45.3059C36.8596 47.1109 39.2422 48.125 41.7266 48.125C44.2109 48.125 46.5935 47.1109 48.3502 45.3059C50.1069 43.5009 51.0938 41.0527 51.0938 38.5H57.9062C57.9062 41.0527 58.8931 43.5009 60.6498 45.3059C62.4065 47.1109 64.7891 48.125 67.2734 48.125C69.7578 48.125 72.1404 47.1109 73.897 45.3059C75.6537 43.5009 76.6406 41.0527 76.6406 38.5H83.4531C83.4531 41.0527 84.44 43.5009 86.1967 45.3059C87.9534 47.1109 90.336 48.125 92.8203 48.125C95.3046 48.125 97.6872 47.1109 99.4439 45.3059C101.201 43.5009 102.188 41.0527 102.188 38.5H109C109 41.9648 107.947 45.3432 105.988 48.163C104.028 50.9827 101.26 53.1029 98.0705 54.2272C94.881 55.3515 91.4293 55.4238 88.1978 54.4339C84.9663 53.444 82.1166 51.4414 80.0469 48.706C78.5355 50.7064 76.5986 52.3248 74.3846 53.4374C72.1705 54.5501 69.7381 55.1273 67.2734 55.125C64.8087 55.1278 62.3761 54.5508 60.162 53.4382C57.9479 52.3255 56.0111 50.7068 54.5 48.706C52.9889 50.7068 51.0521 52.3255 48.838 53.4382C46.6239 54.5508 44.1913 55.1278 41.7266 55.125C39.2618 55.1278 36.8292 54.5508 34.6151 53.4382C32.401 52.3255 30.4642 50.7068 28.9531 48.706C26.8834 51.4414 24.0337 53.444 20.8022 54.4339C17.5707 55.4238 14.119 55.3515 10.9295 54.2272C7.7399 53.1029 4.97192 50.9827 3.01237 48.163C1.05282 45.3432 -0.000371953 41.9648 9.85397e-08 38.5H6.8125C6.8125 43.82 11.009 48.125 16.1797 48.125Z" fill="black"/>
<path d="M32.3594 38.5C32.3594 39.4283 32.0005 40.3185 31.3617 40.9749C30.7229 41.6313 29.8565 42 28.9531 42C28.0497 42 27.1833 41.6313 26.5445 40.9749C25.9057 40.3185 25.5469 39.4283 25.5469 38.5C25.5469 37.5717 25.9057 36.6815 26.5445 36.0251C27.1833 35.3687 28.0497 35 28.9531 35C29.8565 35 30.7229 35.3687 31.3617 36.0251C32.0005 36.6815 32.3594 37.5717 32.3594 38.5V38.5ZM57.9062 38.5C57.9062 39.4283 57.5474 40.3185 56.9086 40.9749C56.2698 41.6313 55.4034 42 54.5 42C53.5966 42 52.7302 41.6313 52.0914 40.9749C51.4526 40.3185 51.0938 39.4283 51.0938 38.5C51.0938 37.5717 51.4526 36.6815 52.0914 36.0251C52.7302 35.3687 53.5966 35 54.5 35C55.4034 35 56.2698 35.3687 56.9086 36.0251C57.5474 36.6815 57.9062 37.5717 57.9062 38.5V38.5ZM83.4531 38.5C83.4531 39.4283 83.0943 40.3185 82.4555 40.9749C81.8167 41.6313 80.9503 42 80.0469 42C79.1435 42 78.2771 41.6313 77.6383 40.9749C76.9995 40.3185 76.6406 39.4283 76.6406 38.5C76.6406 37.5717 76.9995 36.6815 77.6383 36.0251C78.2771 35.3687 79.1435 35 80.0469 35C80.9503 35 81.8167 35.3687 82.4555 36.0251C83.0943 36.6815 83.4531 37.5717 83.4531 38.5V38.5Z" fill="black"/>
<path fill-rule="evenodd" clip-rule="evenodd" d="M13.625 54.922V49H6.8125V52.059C8.79494 53.508 11.118 54.509 13.625 54.922ZM6.8125 60.081C8.93119 61.061 11.2202 61.705 13.625 61.978V105H6.8125V60.081ZM95.375 61.978C97.7274 61.7143 100.026 61.0767 102.188 60.088V105H95.375V61.978V61.978ZM102.188 52.059C100.205 53.508 97.882 54.509 95.375 54.922V49H102.188V52.059V52.059ZM20.4375 66.5C20.4375 65.5717 20.7964 64.6815 21.4352 64.0251C22.074 63.3687 22.9404 63 23.8438 63H51.0938C51.9971 63 52.8635 63.3687 53.5023 64.0251C54.1411 64.6815 54.5 65.5717 54.5 66.5V105H47.6875V70H27.25V105H20.4375V66.5ZM61.3125 66.5C61.3125 65.5717 61.6714 64.6815 62.3102 64.0251C62.949 63.3687 63.8154 63 64.7188 63H85.1562C86.0596 63 86.926 63.3687 87.5648 64.0251C88.2036 64.6815 88.5625 65.5717 88.5625 66.5V94.5C88.5625 95.4283 88.2036 96.3185 87.5648 96.9749C86.926 97.6313 86.0596 98 85.1562 98H64.7188C63.8154 98 62.949 97.6313 62.3102 96.9749C61.6714 96.3185 61.3125 95.4283 61.3125 94.5V66.5ZM68.125 70V91H81.75V70H68.125Z" fill="black"/>
</g>
<defs>
<clipPath id="clip0">
<rect width="109" height="112" fill="white"/>
</clipPath>
</defs>
</svg>
