<svg width="96" height="96" viewBox="0 0 96 96" fill="none" xmlns="http://www.w3.org/2000/svg">
<path d="M80.247 74.79C84.5554 69.6063 87.5519 63.4612 88.983 56.8745C90.4142 50.2879 90.2379 43.4534 88.469 36.9492C86.7002 30.4451 83.3909 24.4627 78.821 19.508C74.2511 14.5534 68.5551 10.7723 62.2148 8.48455C55.8745 6.19684 49.0765 5.46983 42.3959 6.36503C35.7152 7.26023 29.3485 9.7513 23.8342 13.6275C18.3199 17.5037 13.8202 22.651 10.716 28.634C7.61171 34.617 5.99411 41.2596 6.00002 48C6.00228 57.7986 9.45525 67.2833 15.753 74.79L15.693 74.841C15.903 75.093 16.143 75.309 16.359 75.558C16.629 75.867 16.92 76.158 17.199 76.458C18.039 77.37 18.903 78.246 19.809 79.068C20.085 79.32 20.37 79.554 20.649 79.794C21.609 80.622 22.596 81.408 23.619 82.14C23.751 82.23 23.871 82.347 24.003 82.44V82.404C31.0293 87.3485 39.4113 90.0022 48.003 90.0022C56.5947 90.0022 64.9767 87.3485 72.003 82.404V82.44C72.135 82.347 72.252 82.23 72.387 82.14C73.407 81.405 74.397 80.622 75.357 79.794C75.636 79.554 75.921 79.317 76.197 79.068C77.103 78.243 77.967 77.37 78.807 76.458C79.086 76.158 79.374 75.867 79.647 75.558C79.86 75.309 80.103 75.093 80.313 74.838L80.247 74.79ZM48 24C50.6701 24 53.2802 24.7918 55.5002 26.2752C57.7203 27.7586 59.4506 29.867 60.4724 32.3338C61.4942 34.8006 61.7615 37.515 61.2406 40.1337C60.7197 42.7525 59.434 45.1579 57.546 47.0459C55.6579 48.9339 53.2525 50.2197 50.6337 50.7406C48.015 51.2615 45.3006 50.9941 42.8338 49.9724C40.367 48.9506 38.2586 47.2203 36.7752 45.0002C35.2918 42.7801 34.5 40.17 34.5 37.5C34.5 33.9196 35.9223 30.4858 38.4541 27.9541C40.9858 25.4223 44.4196 24 48 24ZM24.021 74.79C24.0731 70.8509 25.6739 67.0907 28.4771 64.3228C31.2803 61.5549 35.0606 60.002 39 60H57C60.9395 60.002 64.7197 61.5549 67.5229 64.3228C70.3262 67.0907 71.927 70.8509 71.979 74.79C65.3995 80.719 56.8568 84.0002 48 84.0002C39.1432 84.0002 30.6005 80.719 24.021 74.79Z" fill="#FF8000"/>
</svg>
