<svg width="50" height="52" viewBox="0 0 50 52" fill="none" xmlns="http://www.w3.org/2000/svg">
<g filter="url(#filter0_d)">
<path fill-rule="evenodd" clip-rule="evenodd" d="M24.562 34.0619C24.7017 33.9226 24.8125 33.7571 24.8881 33.5748C24.9638 33.3926 25.0027 33.1972 25.0027 32.9999C25.0027 32.8026 24.9638 32.6073 24.8881 32.425C24.8125 32.2428 24.7017 32.0773 24.562 31.9379L16.621 23.9999L24.562 16.0619C24.8437 15.7803 25.0019 15.3983 25.0019 14.9999C25.0019 14.6016 24.8437 14.2196 24.562 13.9379C24.2803 13.6563 23.8983 13.498 23.5 13.498C23.1017 13.498 22.7197 13.6563 22.438 13.9379L13.438 22.9379C13.2983 23.0773 13.1875 23.2428 13.1119 23.425C13.0362 23.6073 12.9973 23.8026 12.9973 23.9999C12.9973 24.1972 13.0362 24.3926 13.1119 24.5748C13.1875 24.7571 13.2983 24.9226 13.438 25.0619L22.438 34.0619C22.5773 34.2016 22.7429 34.3125 22.9251 34.3881C23.1073 34.4637 23.3027 34.5026 23.5 34.5026C23.6973 34.5026 23.8927 34.4637 24.0749 34.3881C24.2571 34.3125 24.4227 34.2016 24.562 34.0619Z" fill="white"/>
<path fill-rule="evenodd" clip-rule="evenodd" d="M46 24C46 23.6022 45.842 23.2206 45.5607 22.9393C45.2794 22.658 44.8978 22.5 44.5 22.5H17.5C17.1022 22.5 16.7206 22.658 16.4393 22.9393C16.158 23.2206 16 23.6022 16 24C16 24.3978 16.158 24.7794 16.4393 25.0607C16.7206 25.342 17.1022 25.5 17.5 25.5H44.5C44.8978 25.5 45.2794 25.342 45.5607 25.0607C45.842 24.7794 46 24.3978 46 24Z" fill="white"/>
<path fill-rule="evenodd" clip-rule="evenodd" d="M8.5 43.5C7.30653 43.5 6.16193 43.0259 5.31802 42.182C4.47411 41.3381 4 40.1935 4 39V9C4 7.80653 4.47411 6.66193 5.31802 5.81802C6.16193 4.97411 7.30653 4.5 8.5 4.5H32.5C33.6935 4.5 34.8381 4.97411 35.682 5.81802C36.5259 6.66193 37 7.80653 37 9V13.5C37 13.8978 36.842 14.2794 36.5607 14.5607C36.2794 14.842 35.8978 15 35.5 15C35.1022 15 34.7206 14.842 34.4393 14.5607C34.158 14.2794 34 13.8978 34 13.5V9C34 8.60218 33.842 8.22064 33.5607 7.93934C33.2794 7.65804 32.8978 7.5 32.5 7.5H8.5C8.10218 7.5 7.72064 7.65804 7.43934 7.93934C7.15804 8.22064 7 8.60218 7 9V39C7 39.3978 7.15804 39.7794 7.43934 40.0607C7.72064 40.342 8.10218 40.5 8.5 40.5H32.5C32.8978 40.5 33.2794 40.342 33.5607 40.0607C33.842 39.7794 34 39.3978 34 39V34.5C34 34.1022 34.158 33.7206 34.4393 33.4393C34.7206 33.158 35.1022 33 35.5 33C35.8978 33 36.2794 33.158 36.5607 33.4393C36.842 33.7206 37 34.1022 37 34.5V39C37 40.1935 36.5259 41.3381 35.682 42.182C34.8381 43.0259 33.6935 43.5 32.5 43.5H8.5Z" fill="white"/>
</g>
<defs>
<filter id="filter0_d" x="-3" y="0" width="56" height="56" filterUnits="userSpaceOnUse" color-interpolation-filters="sRGB">
<feFlood flood-opacity="0" result="BackgroundImageFix"/>
<feColorMatrix in="SourceAlpha" type="matrix" values="0 0 0 0 0 0 0 0 0 0 0 0 0 0 0 0 0 0 127 0"/>
<feOffset dy="4"/>
<feGaussianBlur stdDeviation="2"/>
<feColorMatrix type="matrix" values="0 0 0 0 0 0 0 0 0 0 0 0 0 0 0 0 0 0 0.25 0"/>
<feBlend mode="normal" in2="BackgroundImageFix" result="effect1_dropShadow"/>
<feBlend mode="normal" in="SourceGraphic" in2="effect1_dropShadow" result="shape"/>
</filter>
</defs>
</svg>
