<svg width="48" height="48" viewBox="0 0 48 48" fill="none" xmlns="http://www.w3.org/2000/svg">
<g clip-path="url(#clip0)">
<g filter="url(#filter0_d)">
<path fill-rule="evenodd" clip-rule="evenodd" d="M24.438 34.062C24.2983 33.9227 24.1875 33.7571 24.1119 33.5749C24.0362 33.3927 23.9973 33.1973 23.9973 33C23.9973 32.8027 24.0362 32.6073 24.1119 32.4251C24.1875 32.2429 24.2983 32.0773 24.438 31.938L32.379 24L24.438 16.062C24.1563 15.7803 23.9981 15.3983 23.9981 15C23.9981 14.6017 24.1563 14.2197 24.438 13.938C24.7197 13.6563 25.1017 13.4981 25.5 13.4981C25.8983 13.4981 26.2803 13.6563 26.562 13.938L35.562 22.938C35.7017 23.0773 35.8125 23.2429 35.8881 23.4251C35.9638 23.6073 36.0027 23.8027 36.0027 24C36.0027 24.1973 35.9638 24.3927 35.8881 24.5749C35.8125 24.7571 35.7017 24.9227 35.562 25.062L26.562 34.062C26.4227 34.2017 26.2571 34.3125 26.0749 34.3881C25.8927 34.4638 25.6973 34.5027 25.5 34.5027C25.3027 34.5027 25.1073 34.4638 24.9251 34.3881C24.7429 34.3125 24.5773 34.2017 24.438 34.062Z" fill="white"/>
<path fill-rule="evenodd" clip-rule="evenodd" d="M3 24C3 23.6022 3.15804 23.2206 3.43934 22.9393C3.72064 22.658 4.10218 22.5 4.5 22.5H31.5C31.8978 22.5 32.2794 22.658 32.5607 22.9393C32.842 23.2206 33 23.6022 33 24C33 24.3978 32.842 24.7794 32.5607 25.0607C32.2794 25.342 31.8978 25.5 31.5 25.5H4.5C4.10218 25.5 3.72064 25.342 3.43934 25.0607C3.15804 24.7794 3 24.3978 3 24Z" fill="white"/>
<path fill-rule="evenodd" clip-rule="evenodd" d="M40.5 43.5C41.6935 43.5 42.8381 43.0259 43.682 42.182C44.5259 41.3381 45 40.1935 45 39V9C45 7.80653 44.5259 6.66193 43.682 5.81802C42.8381 4.97411 41.6935 4.5 40.5 4.5H16.5C15.3065 4.5 14.1619 4.97411 13.318 5.81802C12.4741 6.66193 12 7.80653 12 9V13.5C12 13.8978 12.158 14.2794 12.4393 14.5607C12.7206 14.842 13.1022 15 13.5 15C13.8978 15 14.2794 14.842 14.5607 14.5607C14.842 14.2794 15 13.8978 15 13.5V9C15 8.60218 15.158 8.22064 15.4393 7.93934C15.7206 7.65804 16.1022 7.5 16.5 7.5H40.5C40.8978 7.5 41.2794 7.65804 41.5607 7.93934C41.842 8.22064 42 8.60218 42 9V39C42 39.3978 41.842 39.7794 41.5607 40.0607C41.2794 40.342 40.8978 40.5 40.5 40.5H16.5C16.1022 40.5 15.7206 40.342 15.4393 40.0607C15.158 39.7794 15 39.3978 15 39V34.5C15 34.1022 14.842 33.7206 14.5607 33.4393C14.2794 33.158 13.8978 33 13.5 33C13.1022 33 12.7206 33.158 12.4393 33.4393C12.158 33.7206 12 34.1022 12 34.5V39C12 40.1935 12.4741 41.3381 13.318 42.182C14.1619 43.0259 15.3065 43.5 16.5 43.5H40.5Z" fill="white"/>
</g>
</g>
<defs>
<filter id="filter0_d" x="-1" y="4.5" width="50" height="47" filterUnits="userSpaceOnUse" color-interpolation-filters="sRGB">
<feFlood flood-opacity="0" result="BackgroundImageFix"/>
<feColorMatrix in="SourceAlpha" type="matrix" values="0 0 0 0 0 0 0 0 0 0 0 0 0 0 0 0 0 0 127 0"/>
<feOffset dy="4"/>
<feGaussianBlur stdDeviation="2"/>
<feColorMatrix type="matrix" values="0 0 0 0 0 0 0 0 0 0 0 0 0 0 0 0 0 0 0.25 0"/>
<feBlend mode="normal" in2="BackgroundImageFix" result="effect1_dropShadow"/>
<feBlend mode="normal" in="SourceGraphic" in2="effect1_dropShadow" result="shape"/>
</filter>
<clipPath id="clip0">
<rect width="48" height="48" fill="white"/>
</clipPath>
</defs>
</svg>
