<svg width="24" height="24" viewBox="0 0 24 24" fill="none" xmlns="http://www.w3.org/2000/svg">
<g clip-path="url(#clip0)">
<path d="M11.0119 23.3088C11.122 23.522 11.2693 23.6963 11.4412 23.8167C11.613 23.9371 11.8042 24 11.9984 24C12.1925 24 12.3837 23.9371 12.5556 23.8167C12.7274 23.6963 12.8748 23.522 12.9849 23.3088L23.7857 2.51023C23.9107 2.27034 23.984 1.98935 23.9977 1.69781C24.0113 1.40627 23.9648 1.11532 23.8631 0.856571C23.7614 0.597822 23.6085 0.381171 23.4209 0.230157C23.2334 0.0791434 23.0183 -0.000458119 22.7992 1.98331e-06H1.19753C0.978923 0.00120576 0.764699 0.0818309 0.577896 0.233207C0.391092 0.384582 0.238776 0.600981 0.137327 0.859132C0.0358782 1.11728 -0.0108646 1.40742 0.00212512 1.69833C0.0151149 1.98925 0.0873458 2.26995 0.21105 2.51023L11.0119 23.3088Z" fill="#094B4B" fill-opacity="0.5"/>
</g>
<defs>
<clipPath id="clip0">
<rect width="24" height="24" fill="white"/>
</clipPath>
</defs>
</svg>
