<svg width="138" height="138" viewBox="0 0 138 138" fill="none" xmlns="http://www.w3.org/2000/svg">
<path d="M43.125 58.2188C43.125 56.9394 43.5044 55.6887 44.2152 54.6249C44.926 53.5611 45.9363 52.732 47.1183 52.2424C48.3003 51.7528 49.601 51.6247 50.8558 51.8743C52.1106 52.1239 53.2632 52.74 54.1679 53.6447C55.0725 54.5493 55.6886 55.7019 55.9382 56.9568C56.1878 58.2116 56.0597 59.5122 55.5701 60.6942C55.0805 61.8762 54.2514 62.8865 53.1876 63.5973C52.1238 64.3081 50.8732 64.6875 49.5938 64.6875C47.8782 64.6875 46.2328 64.006 45.0197 62.7928C43.8066 61.5797 43.125 59.9344 43.125 58.2188ZM88.4063 64.6875C89.6857 64.6875 90.9363 64.3081 92.0001 63.5973C93.0639 62.8865 93.893 61.8762 94.3826 60.6942C94.8722 59.5122 95.0003 58.2116 94.7507 56.9568C94.5011 55.7019 93.885 54.5493 92.9804 53.6447C92.0757 52.74 90.9231 52.1239 89.6683 51.8743C88.4134 51.6247 87.1128 51.7528 85.9308 52.2424C84.7488 52.732 83.7385 53.5611 83.0277 54.6249C82.3169 55.6887 81.9375 56.9394 81.9375 58.2188C81.9375 59.9344 82.6191 61.5797 83.8322 62.7928C85.0453 64.006 86.6907 64.6875 88.4063 64.6875ZM125.063 69C125.063 80.0881 121.775 90.9272 115.614 100.147C109.454 109.366 100.698 116.552 90.4542 120.795C80.2101 125.038 68.9378 126.148 58.0628 123.985C47.1877 121.822 37.1983 116.483 29.3579 108.642C21.5174 100.802 16.1779 90.8123 14.0148 79.9373C11.8516 69.0622 12.9618 57.7899 17.205 47.5458C21.4483 37.3017 28.6339 28.546 37.8534 22.3857C47.0728 16.2255 57.9119 12.9375 69 12.9375C83.8636 12.9543 98.1135 18.8663 108.624 29.3764C119.134 39.8865 125.046 54.1365 125.063 69ZM116.438 69C116.438 59.6177 113.655 50.4462 108.443 42.6451C103.23 34.8441 95.8216 28.7639 87.1536 25.1735C78.4855 21.583 68.9474 20.6436 59.7454 22.474C50.5435 24.3044 42.0909 28.8224 35.4566 35.4566C28.8224 42.0909 24.3044 50.5434 22.474 59.7454C20.6436 68.9474 21.5831 78.4855 25.1735 87.1535C28.7639 95.8216 34.8441 103.23 42.6452 108.443C50.4462 113.655 59.6178 116.438 69 116.438C81.5769 116.423 93.6345 111.421 102.528 102.528C111.421 93.6345 116.423 81.5768 116.438 69ZM90.3458 86.4662C87.0705 83.1942 83.0868 80.719 78.7025 79.2318C74.3182 77.7445 69.6507 77.2851 65.0606 77.889C60.4705 78.4929 56.0807 80.144 52.2303 82.7146C48.3799 85.2852 45.172 88.7066 42.8544 92.7144C42.5708 93.2046 42.3865 93.7459 42.3121 94.3073C42.2376 94.8687 42.2745 95.4393 42.4205 95.9865C42.5666 96.5336 42.819 97.0467 43.1633 97.4963C43.5077 97.9459 43.9372 98.3233 44.4274 98.6069C44.9176 98.8906 45.4588 99.0748 46.0203 99.1493C46.5817 99.2237 47.1523 99.1869 47.6994 99.0408C48.2466 98.8948 48.7596 98.6423 49.2093 98.298C49.6589 97.9537 50.0363 97.5241 50.3199 97.034C52.6733 92.9684 56.2842 89.7778 60.6084 87.9427C64.5608 86.2709 68.9225 85.8177 73.1341 86.6413C77.3457 87.4649 81.2154 89.5276 84.2469 92.5651C85.5811 93.8989 86.7355 95.4012 87.6807 97.034C88.2534 98.024 89.196 98.746 90.3011 99.0411C91.4061 99.3362 92.5831 99.1802 93.5732 98.6075C94.5632 98.0347 95.2852 97.0922 95.5803 95.9871C95.8754 94.8821 95.7194 93.705 95.1467 92.715C93.8252 90.432 92.2112 88.3313 90.3458 86.4662Z" fill="black"/>
</svg>
